<svg width="16" height="16" viewBox="0 0 16 16" fill="currentColor" xmlns="http://www.w3.org/2000/svg">
<path fill-rule="evenodd" clip-rule="evenodd" d="M14.2222 7.15713H14.8445C15.106 7.15713 15.3396 6.99367 15.4291 6.74797C15.5186 6.50229 15.445 6.22684 15.2448 6.0586L9.1884 0.968196C8.49854 0.388369 7.50149 0.388368 6.81164 0.968196L0.755231 6.0586C0.555058 6.22684 0.481434 6.50229 0.570968 6.74797C0.660503 6.99367 0.894091 7.15713 1.15558 7.15713H1.7778V13.566C1.7778 14.5998 2.59786 15.4667 3.64446 15.4667H12.3556C13.4022 15.4667 14.2222 14.5998 14.2222 13.566V7.15713ZM9.86668 11.1111V14.2222H6.13335V11.1111C6.13335 10.0801 6.96906 9.24443 8.00002 9.24443C9.03098 9.24443 9.86668 10.0801 9.86668 11.1111Z" />
</svg>
