<svg width="32" height="32" viewBox="0 0 32 32" fill="none" xmlns="http://www.w3.org/2000/svg">
<g clip-path="url(#clip0_149_1247)">
<path d="M23 0H21V2H23C26.8642 2.00444 29.9956 5.13581 30 9V23C29.9956 26.8642 26.8642 29.9956 23 30H9C5.13581 29.9956 2.00444 26.8642 2 23V9C2.00444 5.13581 5.13581 2.00444 9 2H11V0H9C4.03175 0.0055 0.0055 4.03175 0 9V23C0.0055 27.9683 4.03175 31.9945 9 32H23C27.9683 31.9945 31.9945 27.9683 32 23V9C31.9945 4.03175 27.9683 0.0055 23 0Z" fill="white"/>
<path d="M7 16C7 20.9706 11.0294 25 16 25C20.9706 25 25 20.9706 25 16C25 11.0294 20.9706 7 16 7C11.0318 7.0055 7.0055 11.0318 7 16ZM16 9C19.866 9 23 12.134 23 16C23 19.866 19.866 23 16 23C12.134 23 9 19.866 9 16C9.00444 12.1358 12.1358 9.00444 16 9Z" fill="white"/>
<path d="M26 6H24V8H26V6Z" fill="white"/>
<path d="M22 0H11V2H22V0Z" fill="white"/>
</g>
<defs>
<clipPath id="clip0_149_1247">
<rect width="32" height="32" fill="white"/>
</clipPath>
</defs>
</svg>
