<svg width="16" height="17" viewBox="0 0 16 17" fill="none" xmlns="http://www.w3.org/2000/svg">
<g clip-path="url(#clip0_281_512)">
<path fill-rule="evenodd" clip-rule="evenodd" d="M7.94564 0.164062C3.55738 0.164062 0 3.72145 0 8.1097C0 12.498 3.55738 16.0553 7.94564 16.0553C12.3339 16.0553 15.8913 12.498 15.8913 8.1097C15.8913 3.72145 12.3339 0.164062 7.94564 0.164062ZM6.02652 4.52971C6.02652 5.06011 5.56678 5.49008 4.99967 5.49008C4.43255 5.49008 3.97282 5.06011 3.97282 4.52971C3.97282 3.99931 4.43255 3.56934 4.99967 3.56934C5.56678 3.56934 6.02652 3.99931 6.02652 4.52971ZM4.11324 6.19599H5.86854V11.515H4.11324V6.19599ZM6.93927 6.19599H8.69456V6.87841C8.98919 6.50358 9.55486 6.08928 10.4674 6.08928C12.0041 6.08928 12.4711 6.91523 12.486 8.70773V11.515H10.7307C10.7307 11.1683 10.7283 10.8197 10.7259 10.4712V10.4711L10.7259 10.4706V10.4705V10.4704C10.7225 9.97595 10.7191 9.48175 10.7225 8.99342C10.727 8.35632 10.7329 7.53395 9.7653 7.53395C8.90914 7.53395 8.69456 8.1651 8.69456 8.79351V11.515H6.93927V6.19599Z" fill="white"/>
</g>
<defs>
<clipPath id="clip0_281_512">
<rect width="16" height="16" fill="white" transform="translate(0 0.163086)"/>
</clipPath>
</defs>
</svg>
