<svg width="24" height="25" viewBox="0 0 24 25" fill="none" xmlns="http://www.w3.org/2000/svg">
<path d="M19.5075 14.6514C20.1613 13.4232 20.5022 12.0527 20.5 10.6614C20.5 5.96688 16.6945 2.16138 12 2.16138C7.30551 2.16138 3.50001 5.96688 3.50001 10.6614C3.49657 12.6665 4.20536 14.6077 5.50001 16.1389L5.51001 16.1514C5.51351 16.1544 5.51651 16.1584 5.51901 16.1614H5.50001L10.544 21.5164C10.731 21.7149 10.9566 21.873 11.2069 21.9811C11.4573 22.0892 11.7271 22.145 11.9998 22.145C12.2724 22.145 12.5422 22.0892 12.7926 21.9811C13.0429 21.873 13.2685 21.7149 13.4555 21.5164L18.5 16.1614H18.481L18.489 16.1519L18.49 16.1509C18.526 16.1079 18.562 16.0649 18.5975 16.0209C18.9443 15.5946 19.2491 15.1363 19.5075 14.6514ZM12.0025 13.9109C11.2069 13.9109 10.4438 13.5948 9.88119 13.0322C9.31858 12.4696 9.00251 11.7065 9.00251 10.9109C9.00251 10.1152 9.31858 9.35217 9.88119 8.78956C10.4438 8.22695 11.2069 7.91088 12.0025 7.91088C12.7982 7.91088 13.5612 8.22695 14.1238 8.78956C14.6864 9.35217 15.0025 10.1152 15.0025 10.9109C15.0025 11.7065 14.6864 12.4696 14.1238 13.0322C13.5612 13.5948 12.7982 13.9109 12.0025 13.9109Z" fill="black"/>
</svg>
