<svg width="16" height="16" viewBox="0 0 16 16" fill="none" xmlns="http://www.w3.org/2000/svg">
<g clip-path="url(#clip0_2057_50344)">
<path d="M1.77539 0.939575V5.35749H4.15158V4.18758H10.8803C10.8803 4.18758 5.07528 9.07174 4.57681 15.0603H10.1723C10.1723 15.0603 9.60572 9.06679 14.2227 4.44981V0.939575H11.7797V1.98538C11.7797 1.98538 9.89513 0.939575 7.99901 0.939575C6.10289 0.939575 4.1611 1.98538 4.1611 1.98538V0.939575H1.77539Z" fill="#FA184B"/>
<path d="M11.7807 1.98538C11.7807 1.98538 9.89612 0.939575 8 0.939575V4.18758H10.8813C10.8813 4.18758 9.48299 5.36414 8 7.27024V15.0603H10.1732C10.1732 15.0603 9.60668 9.06679 14.2237 4.44981V0.939575H11.7807V1.98538Z" fill="#D3003C"/>
<path d="M10.1724 15.5H4.57694C4.45402 15.5 4.33669 15.4485 4.25346 15.3581C4.1702 15.2676 4.12863 15.1464 4.13885 15.0239C4.25694 13.6053 4.67274 12.1328 5.3747 10.6473C5.93158 9.46876 6.6692 8.27879 7.56706 7.11041C8.38992 6.03962 9.18944 5.1903 9.76071 4.62726H4.59136V5.35752C4.59136 5.60033 4.39452 5.79714 4.15174 5.79714H1.77555C1.53275 5.79714 1.33594 5.6003 1.33594 5.35752V0.939614C1.33588 0.696839 1.53272 0.5 1.77552 0.5H4.16123C4.40404 0.5 4.60085 0.696839 4.60085 0.939614V1.2924C5.35932 0.967006 6.67804 0.5 7.99917 0.5C9.31034 0.5 10.5948 0.95977 11.3403 1.28551V0.939614C11.3403 0.696839 11.5371 0.5 11.7799 0.5H14.2228C14.4656 0.5 14.6624 0.696839 14.6624 0.939614V4.44988C14.6624 4.56648 14.6161 4.6783 14.5337 4.76074C13.5147 5.77971 12.6746 6.95357 12.0366 8.2497C11.5254 9.2883 11.1418 10.4077 10.8965 11.5768C10.4795 13.564 10.6087 15.0047 10.6101 15.019C10.6217 15.1423 10.5809 15.2647 10.4976 15.3563C10.4143 15.4478 10.2962 15.5 10.1724 15.5ZM5.06657 14.6207H9.7121C9.70062 14.0021 9.7339 12.836 10.036 11.3962C10.2964 10.1552 10.7041 8.9659 11.2477 7.86139C11.9013 6.53358 12.7537 5.32606 13.7832 4.26944V1.37926H12.2195V1.98542C12.2195 2.14116 12.1371 2.28526 12.0029 2.36427C11.8688 2.44328 11.7028 2.44542 11.5666 2.36984C11.549 2.36011 9.75449 1.37926 7.99914 1.37926C6.24042 1.37926 4.3879 2.36272 4.36941 2.37265C4.23318 2.4458 4.06837 2.44205 3.93566 2.36266C3.80295 2.28327 3.72159 2.1401 3.72159 1.98545V1.37926H2.21514V4.91791H3.7121V4.18765C3.7121 3.94485 3.90894 3.74804 4.15171 3.74804H10.8805C11.0652 3.74804 11.2302 3.86349 11.2935 4.03704C11.3568 4.21056 11.3048 4.40514 11.1635 4.52409C11.1494 4.53598 9.71993 5.74836 8.25208 7.66203C7.39524 8.77914 6.69296 9.91339 6.16478 11.0333C5.58973 12.2525 5.22122 13.457 5.06657 14.6207Z" fill="#FFE96D"/>
<path d="M11.5674 2.36984C11.7036 2.44542 11.8696 2.44328 12.0038 2.36427C12.138 2.28526 12.2203 2.14116 12.2203 1.98542V1.37926H13.784V4.26947C12.7545 5.32609 11.9021 6.53361 11.2485 7.86142C10.7049 8.96593 10.2972 10.1552 10.0368 11.3962C9.7347 12.836 9.70142 14.0022 9.71293 14.6208H8V15.5H10.1733C10.297 15.5 10.4151 15.4478 10.4984 15.3563C10.5817 15.2647 10.6226 15.1423 10.6109 15.019C10.6096 15.0047 10.4804 13.564 10.8974 11.5768C11.1427 10.4077 11.5262 9.2883 12.0374 8.2497C12.6754 6.95357 13.5156 5.77971 14.5345 4.76074C14.617 4.6783 14.6633 4.56648 14.6633 4.44988V0.939614C14.6633 0.696839 14.4664 0.5 14.2237 0.5H11.7807C11.5379 0.5 11.3411 0.696839 11.3411 0.939614V1.28548C10.5956 0.95977 9.31117 0.5 8 0.5V1.37926C9.75535 1.37926 11.5498 2.36008 11.5674 2.36984Z" fill="#FFBF26"/>
<path d="M11.1643 4.52397C11.3057 4.40506 11.3576 4.21048 11.2943 4.03693C11.231 3.86341 11.066 3.74792 10.8813 3.74792H8V4.62718H9.7615C9.29101 5.09091 8.66566 5.74895 8 6.56484V7.99882C8.08288 7.88638 8.16687 7.77403 8.25288 7.66192C9.72075 5.74825 11.1502 4.53587 11.1643 4.52397Z" fill="#FFBF26"/>
</g>
<defs>
<clipPath id="clip0_2057_50344">
<rect width="15" height="15" fill="white" transform="translate(0.5 0.5)"/>
</clipPath>
</defs>
</svg>
