<svg width="141" height="131" viewBox="0 0 141 131" fill="none" xmlns="http://www.w3.org/2000/svg">
<path d="M2.43652 115.875V128.528H138.564V115.875H2.43652Z" stroke="#047CC8" stroke-width="3" stroke-linejoin="round"/>
<path d="M11.1622 114.568V48.6855H129.837V115.877H9.41699" stroke="#047CC8" stroke-width="3" stroke-linejoin="round"/>
<path d="M42.1396 2V47.8121H97.5505V2H42.1396Z" stroke="#047CC8" stroke-width="3" stroke-linejoin="round"/>
<path d="M19.8887 72.2461V93.6251H40.395V72.2461H19.8887Z" stroke="#047CC8" stroke-width="3" stroke-linejoin="round"/>
<path d="M100.169 72.2461V93.6251H120.675V72.2461H100.169Z" stroke="#047CC8" stroke-width="3" stroke-linejoin="round"/>
<path d="M50.4297 70.9355V115.439H90.1335V70.9355H50.4297Z" stroke="#047CC8" stroke-width="3" stroke-linejoin="round"/>
<path d="M70.5 70.9355V115.875" stroke="#047CC8" stroke-width="3" stroke-linejoin="round"/>
<path d="M65.2641 30.3603V39.959H73.9902V30.3603H84.4615V21.1979H73.9902V10.7266H65.2641V21.1979H54.3564V30.3603H65.2641Z" stroke="#047CC8" stroke-width="3" stroke-linejoin="round"/>
<path d="M41.7038 48.6854H2V30.7969H41.7038V48.6854ZM41.7038 48.6854H98.4236M98.4236 48.6854H139V30.7969H98.4236V48.6854Z" stroke="#047CC8" stroke-width="3" stroke-linejoin="round"/>
</svg>
