<svg width="134" height="129" viewBox="0 0 134 129" fill="none" xmlns="http://www.w3.org/2000/svg">
<path d="M17.6084 113.863V127.303H57.929V113.863H17.6084Z" stroke="#047CC8" stroke-width="3" stroke-linecap="round" stroke-linejoin="round"/>
<path d="M25.8458 108.228V113.431H49.6914V92.6199L47.9571 86.1166L45.3558 82.6482L29.3143 67.4738C29.3143 67.4738 23.6029 65.2581 21.5103 67.4738C19.534 69.5664 21.5103 74.8442 21.5103 74.8442L31.4821 86.1166C31.4821 86.1166 23.1085 80.2453 19.7761 74.8442C18.5833 72.911 17.1748 69.6415 17.1748 69.6415L15.8741 34.0901C15.8741 34.0901 12.9197 29.0906 9.80432 28.8874C6.42523 28.667 2.86744 34.0901 2.86744 34.0901L2.00033 78.3126C2.00033 78.3126 1.95668 82.1679 2.86744 84.3824C3.74338 86.5122 6.33588 89.1515 6.33588 89.1515L25.8458 108.228Z" stroke="#047CC8" stroke-width="3" stroke-linecap="round" stroke-linejoin="round"/>
<ellipse cx="50.992" cy="121.228" rx="2.16777" ry="2.16777" fill="#047CC8"/>
<path d="M116.892 113.863V127.303H76.571V113.863H116.892Z" stroke="#047CC8" stroke-width="3" stroke-linecap="round" stroke-linejoin="round"/>
<path d="M108.654 108.228V113.431H84.8086V92.6199L86.5429 86.1166L89.1442 82.6482L105.186 67.4738C105.186 67.4738 110.897 65.2581 112.99 67.4738C114.966 69.5664 112.99 74.8442 112.99 74.8442L103.018 86.1166C103.018 86.1166 111.391 80.2453 114.724 74.8442C115.917 72.911 117.325 69.6415 117.325 69.6415L118.626 34.0901C118.626 34.0901 121.58 29.0906 124.696 28.8874C128.075 28.667 131.633 34.0901 131.633 34.0901L132.5 78.3126C132.5 78.3126 132.543 82.1679 131.633 84.3824C130.757 86.5122 128.164 89.1515 128.164 89.1515L108.654 108.228Z" stroke="#047CC8" stroke-width="3" stroke-linecap="round" stroke-linejoin="round"/>
<ellipse cx="2.16777" cy="2.16777" rx="2.16777" ry="2.16777" transform="matrix(-1 0 0 1 85.6758 119.061)" fill="#047CC8"/>
<path d="M61.3777 50.1763V63.1312H73.1549V50.1763H87.2874V37.8103H73.1549V23.6777H61.3777V37.8103H46.6562V50.1763H61.3777Z" stroke="#047CC8" stroke-width="3" stroke-linecap="round" stroke-linejoin="round"/>
<path d="M88.7109 73.9703C82.0565 80.3781 67.4667 84.3756 67.4667 84.3756C67.4667 84.3756 52.3074 80.5082 45.3554 73.9703C38.455 67.4808 33.6494 52.7261 33.6494 52.7261V18.0417L67.4667 3.73438L99.9833 18.0417V52.7261C99.9833 52.7261 95.4761 67.4557 88.7109 73.9703Z" stroke="#047CC8" stroke-width="3" stroke-linecap="round" stroke-linejoin="round"/>
<path d="M19.7754 2V8.93688" stroke="#047CC8" stroke-width="4" stroke-linecap="round" stroke-linejoin="round"/>
<path d="M19.7754 16.7402V23.6771" stroke="#047CC8" stroke-width="4" stroke-linecap="round" stroke-linejoin="round"/>
<path d="M8.50293 12.4053H15.4398" stroke="#047CC8" stroke-width="4" stroke-linecap="round" stroke-linejoin="round"/>
<path d="M24.1113 12.4053H31.0482" stroke="#047CC8" stroke-width="4" stroke-linecap="round" stroke-linejoin="round"/>
<path d="M115.158 2V8.93688" stroke="#047CC8" stroke-width="4" stroke-linecap="round" stroke-linejoin="round"/>
<path d="M115.158 16.7402V23.6771" stroke="#047CC8" stroke-width="4" stroke-linecap="round" stroke-linejoin="round"/>
<path d="M103.886 12.4053H110.823" stroke="#047CC8" stroke-width="4" stroke-linecap="round" stroke-linejoin="round"/>
<path d="M119.493 12.4053H126.43" stroke="#047CC8" stroke-width="4" stroke-linecap="round" stroke-linejoin="round"/>
</svg>
