<svg width="181" height="109" viewBox="0 0 181 109" fill="none" xmlns="http://www.w3.org/2000/svg">
<path d="M107.097 0.51709H73.6332C67.3858 0.51709 62.3213 7.15095 62.3213 15.3342V59.1683C62.3213 67.3516 67.3858 73.9855 73.6332 73.9855H107.097C113.345 73.9855 118.409 67.3516 118.409 59.1683V15.3342C118.409 7.15095 113.345 0.51709 107.097 0.51709Z" fill="#43B02A"/>
<path fill-rule="evenodd" clip-rule="evenodd" d="M28.6042 103.572H20.746L19.2469 108.302H15.2331L22.777 86.2314H26.6457L34.2138 108.302H30.1034L28.6042 103.572ZM27.3712 99.6942L24.6872 91.2446L22.0033 99.6942H27.3712ZM5.41615 90.3932H0V86.2314H14.7493V90.3932H9.3332V108.302H5.41615V90.3932ZM52.1215 98.8431C51.5736 97.8972 50.816 97.2246 49.8488 96.8251C50.558 96.3418 51.1061 95.6797 51.4929 94.8389C51.8959 93.998 52.0974 93.0416 52.0974 91.9695C52.0974 90.204 51.5413 88.8061 50.429 87.7763C49.3329 86.7462 47.7531 86.2314 45.6899 86.2314H37.4206V108.302H46.1735C48.3817 108.302 50.0584 107.787 51.2027 106.757C52.3634 105.706 52.9436 104.213 52.9436 102.28C52.9436 100.914 52.6696 99.7678 52.1215 98.8431ZM41.3135 95.2803V90.0779H45.2063C46.1735 90.0779 46.9071 90.2986 47.4067 90.74C47.9064 91.1604 48.1561 91.8015 48.1561 92.6634C48.1561 93.5252 47.9064 94.1768 47.4067 94.6182C46.9071 95.0596 46.1735 95.2803 45.2063 95.2803H41.3135ZM48.2045 103.793C47.6888 104.234 46.9151 104.455 45.8834 104.455H41.3135V99.0006H45.8834C47.9626 99.0006 49.0023 99.9149 49.0023 101.744C49.0023 102.669 48.7363 103.352 48.2045 103.793ZM57.36 86.2314H61.277V104.14H69.7639V108.302H57.36V86.2314ZM86.5083 108.302V104.203H77.2961V99.0953H85.1543V95.1224H77.2961V90.33H86.1941V86.2314H73.4032V108.302H86.5083ZM94.5817 90.3932H89.1656V86.2314H103.915V90.3932H98.4989V108.302H94.5817V90.3932ZM111.366 102.721L113.639 99.6313L119.055 108.302H123.625L116.202 96.0684L123.214 86.2314H118.862L111.366 96.5412V86.2314H107.473V108.302H111.366V102.721ZM126.822 86.2314H130.739V108.302H126.822V86.2314ZM135.699 107.671C136.151 108.26 136.707 108.554 137.368 108.554C138.029 108.554 138.585 108.26 139.036 107.671C139.487 107.083 139.713 106.347 139.713 105.464C139.713 104.561 139.487 103.835 139.036 103.289C138.585 102.721 138.029 102.437 137.368 102.437C136.707 102.437 136.151 102.721 135.699 103.289C135.248 103.835 135.022 104.561 135.022 105.464C135.022 106.347 135.248 107.083 135.699 107.671ZM151.34 108.68C148.922 108.68 147.036 107.808 145.683 106.063C144.344 104.319 143.676 101.828 143.676 98.5907V86.2314H147.592V98.4017C147.592 102.353 148.85 104.329 151.364 104.329C152.589 104.329 153.525 103.856 154.169 102.91C154.814 101.943 155.137 100.44 155.137 98.4017V86.2314H159.005V98.5907C159.005 101.828 158.328 104.319 156.973 106.063C155.636 107.808 153.758 108.68 151.34 108.68ZM167.261 103.572H175.119L176.618 108.302H180.728L173.16 86.2314H169.291L161.748 108.302H165.762L167.261 103.572ZM171.202 91.2446L173.886 99.6942H168.518L171.202 91.2446Z" fill="#43B02A"/>
<path d="M81.404 55.6198C88.9329 55.6198 95.0365 47.625 95.0365 37.7628C95.0365 27.9008 88.9329 19.906 81.404 19.906C73.8751 19.906 67.7715 27.9008 67.7715 37.7628C67.7715 47.625 73.8751 55.6198 81.404 55.6198Z" fill="#358C21"/>
<path d="M81.404 54.602C88.9329 54.602 95.0365 46.6072 95.0365 36.7449C95.0365 26.883 88.9329 18.8882 81.404 18.8882C73.8751 18.8882 67.7715 26.883 67.7715 36.7449C67.7715 46.6072 73.8751 54.602 81.404 54.602Z" fill="white" stroke="#888888" stroke-width="1.34579" stroke-miterlimit="10"/>
<path d="M70.8896 26.0269L91.9227 47.4551" stroke="#888888" stroke-width="2.69159" stroke-miterlimit="10"/>
<path d="M99.7118 55.6195C107.026 55.6195 112.955 47.8531 112.955 38.2729C112.955 28.6926 107.026 20.9261 99.7118 20.9261C92.3979 20.9261 86.4688 28.6926 86.4688 38.2729C86.4688 47.8531 92.3979 55.6195 99.7118 55.6195Z" fill="#358C21"/>
<path d="M99.7118 55.6198C107.026 55.6198 112.955 47.625 112.955 37.7631C112.955 27.9007 107.026 19.906 99.7118 19.906C92.3979 19.906 86.4688 27.9007 86.4688 37.7631C86.4688 47.625 92.3979 55.6198 99.7118 55.6198Z" fill="white" stroke="#888888" stroke-width="1.34579" stroke-miterlimit="10"/>
<path d="M99.7119 19.906V55.6198" stroke="#888888" stroke-width="2.69159" stroke-miterlimit="10"/>
</svg>
