<svg width="139" height="98" viewBox="0 0 139 98" fill="none" xmlns="http://www.w3.org/2000/svg">
<circle cx="68.9004" cy="20.9014" r="19.4014" stroke="#047CC8" stroke-width="3"/>
<circle cx="111.574" cy="30.4815" r="15.0469" stroke="#047CC8" stroke-width="3"/>
<circle cx="27.9688" cy="31.3516" r="15.0469" stroke="#047CC8" stroke-width="3"/>
<path d="M2.19985 89.7033H52.1792C52.1792 89.7033 54.1627 71.3519 47.4641 63.2992C42.0225 56.7574 36.482 53.7635 27.9754 53.5548C19.027 53.3352 12.9989 56.4558 7.22921 63.2992C0.463107 71.3244 2.19985 89.7033 2.19985 89.7033Z" stroke="#047CC8" stroke-width="3" stroke-linejoin="round"/>
<path d="M86.6764 87.9621H136.656C136.656 87.9621 138.639 69.6107 131.941 61.5579C126.499 55.0162 120.959 52.0223 112.452 51.8135C103.504 51.594 97.4755 54.7146 91.7058 61.5579C84.9397 69.5832 86.6764 87.9621 86.6764 87.9621Z" stroke="#047CC8" stroke-width="3" stroke-linejoin="round"/>
<path d="M34.5005 95.7973H103.736C103.736 95.7973 106.484 70.3752 97.2046 59.2198C89.6664 50.1576 81.9911 46.0102 70.207 45.721C57.8109 45.4168 49.4603 49.7398 41.4676 59.2198C32.0946 70.3371 34.5005 95.7973 34.5005 95.7973Z" fill="#F5F5F5" stroke="#047CC8" stroke-width="3" stroke-linejoin="round"/>
</svg>
