<svg width="134" height="90" viewBox="0 0 134 90" fill="none" xmlns="http://www.w3.org/2000/svg">
<path d="M80.4333 79.5664L85.6333 81.2997V88.2331L92.1333 87.7997L96.0333 83.4664H99.5L102.967 81.2997L109.033 79.9997V76.5331L106.433 75.2331L99.9333 77.8331L96.4667 75.6664L94.7333 75.2331L91.2667 73.0664L86.5 74.3664L83.4667 73.9331L80 76.5331L80.4333 79.5664Z" stroke="#047CC8" stroke-width="3" stroke-linejoin="round"/>
<path d="M47.0667 75.2333L44.9 79.1333L47.9333 80L51.8333 78.2667H56.6L57.0333 75.2333L59.2 73.0667L62.2333 70.4667L63.1 68.3L64.4 65.7H73.5L73.9333 68.3L77.8333 70.9L80.4333 71.3333L87.3667 69.1667L89.1 69.6L93 70.4667L95.6 68.3L98.2 65.7L104.267 64.4L108.6 61.3667L115.533 59.2L119.433 56.6L120.3 53.1333L121.167 50.9667L127.233 48.3667L129.833 47.0667L131.133 44.4667L129.833 41.4333L128.967 34.9333L132 31.4667L131.133 29.3L129.4 28.4333H126.367L117.7 24.5333L114.233 24.9667L112.933 22.8L111.2 21.5L103.833 24.1L101.667 22.8H97.7667L96.9 17.1667L93.4333 14.1333H89.1L88.6667 7.2L87.8 4.6L83.9 2L79.5667 2.43333L76.1 3.73333L73.5 6.76667H70.0333H66.5667L64.4 8.93333L63.5333 14.1333L59.6333 11.9667L55.7333 13.2667L52.2667 11.9667L50.5333 12.4L47.0667 10.6667L41 10.2333L36.2333 6.76667L27.5667 5.03333L22.3667 5.9L17.1667 8.06667V11.1L18.0333 16.7333L17.6 20.2L15.4333 22.3667L11.5333 24.5333L8.93333 27.5667L7.63333 31.0333L7.2 35.3667L2.86667 37.9667L2 41L5.46667 44.9L12.4 46.6333L17.1667 48.8L21.5 51.4L28.8667 50.5333L33.2 47.5L37.5333 45.7667L42.3 44.9L47.9333 47.9333L52.7 50.5333L53.5667 54.4333L55.3 60.0667L58.3333 63.5333L57.9 67L55.7333 68.3L51.4 67.4333L50.1 70.9L47.0667 75.2333Z" stroke="#047CC8" stroke-width="3" stroke-linejoin="round"/>
</svg>
