<svg width="182" height="79" viewBox="0 0 182 79" fill="none" xmlns="http://www.w3.org/2000/svg">
<mask id="mask0_149_737" style="mask-type:luminance" maskUnits="userSpaceOnUse" x="0" y="0" width="182" height="79">
<path d="M181.365 0.313599H0.636719V78.3731H181.365V0.313599Z" fill="white"/>
</mask>
<g mask="url(#mask0_149_737)">
<path d="M136.496 2.30219C137.079 2.79461 137.545 3.38552 137.848 4.03551C138.151 4.68553 138.291 5.37492 138.268 6.084C138.245 7.12796 137.872 8.15219 137.172 9.01886C136.472 9.88554 135.493 10.5553 134.374 10.9689C133.231 11.3628 131.972 11.481 130.759 11.284C129.546 11.0871 128.427 10.5946 127.541 9.86584C126.352 8.86131 125.769 7.6007 125.769 6.1037C125.769 4.58704 126.375 3.32643 127.541 2.34158C128.753 1.37642 130.339 0.844604 132.018 0.844604C133.697 0.844604 135.306 1.33703 136.496 2.30219Z" fill="black"/>
<path d="M137.312 14.3998H126.678V57.4576H137.312V14.3998Z" fill="black"/>
<path d="M179.288 19.2445L172.526 24.9567C172.246 24.7203 171.849 24.4052 171.336 23.9915C170.823 23.5779 169.727 23.0461 168.072 22.3961C166.533 21.7658 164.83 21.4309 163.105 21.4309C160.866 21.4309 159.093 21.8643 157.788 22.7309C156.482 23.5976 155.829 24.6218 155.829 25.8036C155.829 27.0249 156.458 28.0688 157.718 28.8961C159.117 29.7825 160.726 30.4325 162.452 30.787C164.34 31.2203 166.393 31.7522 168.585 32.4022C170.683 33.0128 172.736 33.7416 174.741 34.5688C176.7 35.4158 178.332 36.6764 179.498 38.2718C180.758 39.9266 181.387 41.9353 181.387 44.2796C181.387 47.9039 179.662 51.0157 176.187 53.5962C172.712 56.1766 168.188 57.4567 162.638 57.4567C160.283 57.4567 157.928 57.2008 155.642 56.6887C153.427 56.1766 151.608 55.566 150.185 54.8369C148.879 54.1871 147.643 53.4584 146.454 52.6705C145.615 52.1187 144.822 51.4885 144.146 50.7991L143.376 49.9915L150.139 44.2796C150.605 44.8113 151.095 45.3038 151.631 45.7766C152.284 46.3672 153.707 47.1552 155.899 48.1205C157.974 49.0462 160.283 49.5583 162.638 49.5583C165.413 49.5583 167.512 49.0854 168.888 48.1205C170.287 47.1552 170.963 45.8747 170.963 44.2796C170.963 43.0584 170.334 42.0338 169.074 41.2066C167.652 40.3202 166.043 39.69 164.34 39.316C162.452 38.8824 160.423 38.3311 158.231 37.681C156.132 37.0704 154.08 36.3416 152.098 35.534C150.139 34.7067 148.483 33.4264 147.34 31.8506C146.081 30.1764 145.451 28.1673 145.451 25.8233C145.451 22.593 147.13 19.7173 150.512 17.2354C153.893 14.7339 158.091 13.493 163.151 13.493C165.11 13.493 167.069 13.69 168.958 14.0839C170.567 14.3794 172.106 14.8521 173.552 15.5021C174.648 16.0142 175.697 16.5855 176.677 17.2157C177.353 17.6491 178.006 18.1218 178.635 18.6143L179.288 19.2445Z" fill="black"/>
<path d="M115.016 68.1888C114.294 68.839 113.92 69.5873 113.92 70.4738C113.92 71.3402 114.294 72.0889 115.016 72.7584C115.739 73.4086 116.556 73.7237 117.465 73.7237C118.328 73.7237 119.097 73.4086 119.774 72.7784C120.45 72.1478 120.8 71.3799 120.8 70.4738C120.8 69.5677 120.45 68.7994 119.774 68.1692C119.097 67.539 118.328 67.2239 117.465 67.2239C116.556 67.2039 115.739 67.539 115.016 68.1888ZM113.92 73.3494V78.3722H112.475V66.2389H113.92V67.5586C113.944 67.5193 113.99 67.4797 114.06 67.4008C114.13 67.3224 114.27 67.2039 114.503 67.0269C114.737 66.8495 114.97 66.7118 115.226 66.5736C115.483 66.4359 115.809 66.3178 116.206 66.2193C116.602 66.1008 117.022 66.0616 117.465 66.0616C118.748 66.0616 119.844 66.4948 120.823 67.3616C121.779 68.2284 122.269 69.2722 122.269 70.4738C122.269 71.6753 121.779 72.7192 120.846 73.566C119.89 74.4328 118.771 74.8464 117.488 74.8464C117.069 74.8464 116.649 74.7875 116.252 74.689C115.856 74.5905 115.529 74.4721 115.25 74.3147C114.97 74.1769 114.737 74.0192 114.527 73.8815C114.34 73.7237 114.177 73.6056 114.084 73.5071L113.92 73.3494ZM126.42 62.3584V67.4601C126.443 67.4208 126.49 67.3812 126.536 67.3224C126.606 67.2631 126.723 67.145 126.933 66.9872C127.143 66.8299 127.353 66.6721 127.586 66.554C127.819 66.4359 128.122 66.3178 128.495 66.2193C128.868 66.1208 129.265 66.0616 129.661 66.0616C130.874 66.0616 131.853 66.3963 132.6 67.0465C133.346 67.6963 133.719 68.5828 133.719 69.6662V74.689H132.273V69.6662C132.273 68.9175 132.017 68.3269 131.504 67.8933C130.991 67.4405 130.338 67.2239 129.545 67.2239C128.659 67.2239 127.912 67.4797 127.306 68.0114C126.7 68.5435 126.42 69.213 126.42 70.0206V74.689H124.974V62.3584H126.42ZM139.222 69.8436L143.07 69.3115C143.07 68.6813 142.837 68.1888 142.371 67.7948C141.904 67.4008 141.298 67.2039 140.575 67.2039C140.039 67.2039 139.549 67.3024 139.082 67.5193C138.616 67.716 138.29 67.9329 138.08 68.1299L137.753 68.425L136.82 67.6375C136.867 67.5978 136.914 67.539 136.984 67.4601C137.054 67.3812 137.217 67.2631 137.45 67.0857C137.683 66.9084 137.94 66.7314 138.22 66.5933C138.476 66.4555 138.826 66.3178 139.246 66.2193C139.689 66.1008 140.132 66.0419 140.575 66.0419C141.718 66.0419 142.65 66.357 143.397 66.9872C144.143 67.6175 144.516 68.3858 144.516 69.3115V74.689H143.07V73.5464C143.047 73.586 143 73.6252 142.93 73.6845C142.884 73.7433 142.744 73.8418 142.534 73.9996C142.347 74.1569 142.114 74.2754 141.904 74.4132C141.671 74.5313 141.368 74.6298 140.995 74.7283C140.622 74.8268 140.225 74.866 139.829 74.866C138.826 74.866 137.986 74.6102 137.31 74.1177C136.634 73.6252 136.284 73.0539 136.284 72.4041C136.284 71.695 136.541 71.1236 137.03 70.71C137.567 70.2572 138.29 69.9813 139.222 69.8436ZM139.852 73.7041C140.785 73.7041 141.578 73.4479 142.161 72.9161C142.767 72.404 143.07 71.7146 143.07 70.8874V70.3557L139.642 70.8874C138.406 71.0844 137.777 71.5769 137.753 72.3844C137.753 72.7584 137.94 73.0739 138.313 73.3297C138.686 73.586 139.199 73.7041 139.852 73.7041ZM153.074 66.0616V67.3024H152.445C151.582 67.3024 150.859 67.5586 150.229 68.0511C149.623 68.5632 149.32 69.213 149.32 70.0206V74.689H147.874V66.2389H149.32V67.3812C149.343 67.342 149.39 67.3024 149.436 67.2435C149.483 67.1842 149.623 67.0661 149.833 66.9284C150.043 66.7706 150.253 66.6329 150.486 66.5148C150.719 66.3963 151.046 66.2978 151.419 66.1993C151.815 66.1008 152.235 66.0616 152.655 66.0616H153.074ZM168.372 74.669V69.6466C168.372 68.8586 168.139 68.2481 167.673 67.8345C167.229 67.4008 166.623 67.1842 165.877 67.1842C165.107 67.1842 164.478 67.4405 163.941 67.9526C163.428 68.4647 163.148 69.1345 163.148 70.0009V74.669H161.703V69.6466C161.703 68.8783 161.469 68.2677 161.003 67.8345C160.56 67.4008 159.954 67.1842 159.184 67.1842C158.415 67.1842 157.785 67.4405 157.249 67.9526C156.736 68.4647 156.479 69.1345 156.479 70.0009V74.669H155.033V66.2193H156.479V67.2827C156.502 67.2435 156.549 67.2039 156.572 67.145C156.619 67.0857 156.712 66.9872 156.875 66.8495C157.039 66.7118 157.225 66.5736 157.435 66.4752C157.645 66.357 157.902 66.2585 158.228 66.1797C158.554 66.0812 158.904 66.0419 159.277 66.0419C159.72 66.0419 160.14 66.1008 160.537 66.1993C160.933 66.2978 161.236 66.4163 161.469 66.5736C161.703 66.7118 161.889 66.8495 162.052 67.0069C162.216 67.1646 162.356 67.2827 162.426 67.3812L162.519 67.539C162.542 67.4993 162.589 67.4601 162.635 67.3812C162.682 67.3024 162.799 67.1842 163.009 67.0069C163.218 66.8299 163.428 66.6918 163.662 66.554C163.895 66.4163 164.221 66.2978 164.618 66.1993C165.037 66.0812 165.48 66.0419 165.947 66.0419C167.09 66.0419 168.022 66.357 168.722 66.9872C169.445 67.6175 169.795 68.5039 169.795 69.6466V74.669H168.372ZM175.368 69.8436L179.216 69.3115C179.216 68.6813 178.983 68.1888 178.516 67.7948C178.05 67.4008 177.444 67.2039 176.721 67.2039C176.184 67.2039 175.695 67.3024 175.228 67.5193C174.762 67.716 174.435 67.9329 174.225 68.1299L173.899 68.425L172.966 67.6375C173.013 67.5978 173.059 67.539 173.129 67.4601C173.199 67.3812 173.363 67.2631 173.596 67.0857C173.829 66.9084 174.085 66.7314 174.365 66.5933C174.622 66.4555 174.972 66.3178 175.391 66.2193C175.834 66.1008 176.278 66.0419 176.721 66.0419C177.863 66.0419 178.796 66.357 179.542 66.9872C180.289 67.6175 180.662 68.3858 180.662 69.3115V74.689H179.216V73.5464C179.192 73.586 179.146 73.6252 179.076 73.6845C179.029 73.7433 178.889 73.8418 178.679 73.9996C178.493 74.1569 178.26 74.2754 178.05 74.4132C177.817 74.5313 177.513 74.6298 177.14 74.7283C176.767 74.8268 176.371 74.866 175.974 74.866C174.972 74.866 174.132 74.6102 173.456 74.1177C172.78 73.6252 172.43 73.0539 172.43 72.4041C172.43 71.695 172.686 71.1236 173.176 70.71C173.689 70.2572 174.412 69.9813 175.368 69.8436ZM175.974 73.7041C176.907 73.7041 177.7 73.4479 178.283 72.9161C178.889 72.404 179.192 71.7146 179.192 70.8874V70.3557L175.764 70.8874C174.529 71.0844 173.899 71.5769 173.876 72.3844C173.876 72.7584 174.062 73.0739 174.435 73.3297C174.808 73.586 175.321 73.7041 175.974 73.7041Z" fill="black"/>
<path d="M52.5225 57.4963C52.1494 57.2205 51.753 56.9054 51.4032 56.5903C48.3017 53.8721 46.7392 50.5433 46.7392 46.6039C46.7392 42.6645 48.3017 39.3357 51.4032 36.6175C54.5047 33.8993 58.1659 32.5402 62.4101 32.5402C66.6543 32.5402 70.3155 33.8993 73.3937 36.6175C76.4719 39.3357 78.0111 42.6645 78.0111 46.6039C78.0111 50.5433 76.4719 53.8721 73.3937 56.5903C73.0206 56.9054 72.6475 57.2205 72.2744 57.4963H84.937C87.2923 54.2068 88.5049 50.4448 88.4583 46.6039C88.4583 40.6946 85.8698 35.5538 80.7161 31.1614C75.5392 26.7887 69.4527 24.5826 62.4334 24.6023C55.4142 24.6023 49.3277 26.7887 44.1507 31.1811C38.9737 35.5538 36.4085 40.7146 36.4085 46.6235C36.3619 50.4644 37.5745 54.2268 39.9298 57.516L52.5225 57.4963Z" fill="black"/>
<path d="M72.2508 11.3596C69.5457 13.4278 66.0244 14.5505 62.3865 14.5308C58.7486 14.5505 55.204 13.4278 52.4989 11.3596H39.8828C41.0721 13.0142 42.4946 14.5308 44.1037 15.8899C49.2808 20.2627 55.3673 22.4293 62.3865 22.4293C69.4058 22.4293 75.4922 20.243 80.6692 15.8899C82.2783 14.5308 83.7008 13.0142 84.8901 11.3596H72.2508Z" fill="#1183F6"/>
<path d="M27.058 48.8866C26.4051 49.1033 25.7521 49.2606 25.0525 49.3591C24.2363 49.4972 23.4201 49.5561 22.5806 49.5757C20.785 49.5757 19.2925 49.0836 18.1265 48.0791C16.9372 47.0745 16.3542 45.7941 16.3542 44.2182V25.0334H26.7782V17.0955H16.3542V0.313599H5.97695V17.0955H0.636719V24.994H5.97695V44.2774C5.95363 53.0623 10.7808 57.4545 20.5052 57.4545C23.3269 57.4545 25.7521 57.1594 27.8276 56.5881V48.6897L27.058 48.8866Z" fill="black"/>
<path d="M118.165 48.8868C117.512 49.1034 116.859 49.2607 116.16 49.3592C115.344 49.4974 114.527 49.5562 113.688 49.5758C111.892 49.5758 110.4 49.0838 109.234 48.0792C108.045 47.0746 107.462 45.7942 107.462 44.2183V25.0335H117.885V17.0956H107.462V0.313721H97.0609V17.0956H91.7207V24.9941H97.0609V44.2775C97.0376 53.0624 101.865 57.4546 111.589 57.4546C114.411 57.4546 116.836 57.1595 118.912 56.5882V48.6898L118.165 48.8868Z" fill="black"/>
</g>
</svg>
