<svg width="1437" height="923" viewBox="0 0 1437 923" fill="none" xmlns="http://www.w3.org/2000/svg">
<path d="M94.9077 844.674L56.0331 847.87L0 733.578H52.2797L94.9077 844.674ZM162.201 733.578L107.777 846.272L99.7335 920.069H46.3815L55.4969 845.739L107.777 733.578H162.201Z" fill="#041C32"/>
<path d="M277.503 923C255.34 923 236.216 919.093 220.13 911.278C204.222 903.285 192.068 892.717 183.668 879.574C175.446 866.253 171.335 851.6 171.335 835.615V814.036C171.335 798.939 175.446 785.085 183.668 772.475C191.89 759.864 203.954 749.74 219.862 742.103C235.948 734.466 255.162 730.647 277.503 730.647C300.202 730.647 319.506 734.466 335.413 742.103C351.499 749.74 363.564 759.864 371.607 772.475C379.65 785.085 383.671 798.85 383.671 813.769V835.349C383.671 851.512 379.65 866.253 371.607 879.574C363.742 892.717 351.857 903.285 335.949 911.278C320.042 919.093 300.56 923 277.503 923ZM277.503 879.574C294.662 879.574 307.888 875.844 317.182 868.385C326.655 860.747 331.392 850.091 331.392 836.415V813.503C331.392 801.248 326.655 791.657 317.182 784.73C307.888 777.625 294.662 774.073 277.503 774.073C259.987 774.073 246.582 777.625 237.288 784.73C228.173 791.834 223.615 801.958 223.615 815.101V837.747C223.615 850.89 228.173 861.191 237.288 868.651C246.582 875.933 259.987 879.574 277.503 879.574Z" fill="#041C32"/>
<path d="M486.287 922.467C465.017 922.467 447.948 919.448 435.08 913.409C422.389 907.193 413.274 899.111 407.733 889.165C402.371 879.041 399.69 867.497 399.69 854.531V733.578H451.97V846.805C451.97 858.705 455.098 867.23 461.353 872.381C467.609 877.532 475.92 880.107 486.287 880.107C496.653 880.107 504.965 877.532 511.22 872.381C517.476 867.23 520.604 858.705 520.604 846.805V733.578H572.883V854.531C572.883 867.497 570.202 879.041 564.84 889.165C559.478 899.111 550.363 907.193 537.494 913.409C524.625 919.448 507.556 922.467 486.287 922.467Z" fill="#041C32"/>
<path d="M653.814 733.578H706.094V920.069H653.814V733.578ZM584.644 733.578H775.264V773.54H584.644V733.578Z" fill="#041C32"/>
<path d="M787.448 733.578H839.728V920.069H787.448V733.578ZM928.469 733.578H980.749V920.069H928.469V733.578ZM805.947 803.379H963.858V843.341H805.947V803.379Z" fill="#041C32"/>
<path d="M1159.68 922.467C1138.41 922.467 1121.34 919.448 1108.47 913.409C1095.78 907.193 1086.67 899.111 1081.13 889.165C1075.77 879.041 1073.08 867.497 1073.08 854.531V733.578H1125.36V846.805C1125.36 858.705 1128.49 867.23 1134.75 872.381C1141 877.532 1149.31 880.107 1159.68 880.107C1170.05 880.107 1178.36 877.532 1184.61 872.381C1190.87 867.23 1194 858.705 1194 846.805V733.578H1246.28V854.531C1246.28 867.497 1243.6 879.041 1238.23 889.165C1232.87 899.111 1223.76 907.193 1210.89 913.409C1198.02 919.448 1180.95 922.467 1159.68 922.467Z" fill="#041C32"/>
<path d="M1264.74 733.578H1317.02V920.069H1264.74V733.578ZM1375.47 733.578C1389.77 733.578 1401.47 736.508 1410.59 742.369C1419.88 748.053 1426.49 755.424 1430.43 764.482C1434.54 773.363 1436.59 782.687 1436.59 792.456V794.854C1436.59 804.8 1434.54 814.302 1430.43 823.36C1426.49 832.241 1419.97 839.612 1410.86 845.473C1401.74 851.334 1389.94 854.265 1375.47 854.265H1282.44V818.298H1362.33C1369.12 818.298 1374.48 816.345 1378.42 812.437C1382.35 808.53 1384.31 803.557 1384.31 797.518V788.992C1384.31 782.598 1382.35 777.803 1378.42 774.606C1374.66 771.231 1369.3 769.544 1362.33 769.544H1282.44V733.578H1375.47Z" fill="#041C32"/>
<path fill-rule="evenodd" clip-rule="evenodd" d="M1008.64 148.214L937.029 441.744L720.295 650.938L502.371 440.508L429.096 146.566L718.63 63.465L1008.64 148.214Z" fill="#041C32"/>
<path d="M937.194 189.712L718.134 316.186L718.134 569.135L718.134 316.186L499.074 189.712L718.134 316.186L937.194 189.712Z" fill="#D9D9D9"/>
<path fill-rule="evenodd" clip-rule="evenodd" d="M759.802 340.999V570.649L679.094 570.649L679.094 340.999L480.211 226.173L520.565 156.279L719.448 271.104L918.331 156.279L958.685 226.173L759.802 340.999Z" fill="#F5C787"/>
</svg>
