<svg width="24" height="25" viewBox="0 0 24 25" fill="none" xmlns="http://www.w3.org/2000/svg">
<path fill-rule="evenodd" clip-rule="evenodd" d="M20.321 6.396L13.4164 2.58826C12.5637 2.11803 11.5132 2.11803 10.6605 2.58826L3.75592 6.396C2.90324 6.86624 2.37796 7.73527 2.37796 8.67575V16.2912C2.37796 17.2317 2.90324 18.1007 3.75592 18.571L10.6605 22.3787C11.5132 22.8489 12.5637 22.8489 13.4164 22.3787L20.321 18.571C21.1737 18.1007 21.699 17.2317 21.699 16.2912V8.67575C21.699 7.73527 21.1737 6.86624 20.321 6.396ZM14.1054 1.44839C12.8264 0.743033 11.2506 0.743034 9.97153 1.44839L3.06694 5.25613C1.78791 5.96148 1 7.26504 1 8.67575V16.2912C1 17.7019 1.78791 19.0055 3.06694 19.7108L9.97153 23.5186C11.2506 24.2239 12.8264 24.2239 14.1054 23.5186L21.01 19.7108C22.289 19.0055 23.0769 17.7019 23.0769 16.2912V8.67575C23.0769 7.26504 22.289 5.96148 21.01 5.25613L14.1054 1.44839Z" fill="#20A1EC"/>
<path d="M11.4263 10.583C11.4263 11.1182 11.2491 11.5631 10.8945 11.9177C10.5399 12.2656 10.0449 12.473 9.40931 12.5399L11.3962 14.7777V14.9683H9.9512L7.80371 12.5599H6.11784V14.9683H4.86346V8.38539H8.9778C9.74046 8.38539 10.3392 8.57271 10.7741 8.94735C11.2089 9.31529 11.4263 9.82039 11.4263 10.4626V10.583ZM10.1519 10.4125C10.1519 10.1248 10.0482 9.90401 9.84081 9.75014C9.63342 9.58958 9.33572 9.5093 8.9477 9.5093H6.11784V11.4461H8.9477C9.33572 11.4461 9.63342 11.3691 9.84081 11.2152C10.0482 11.0547 10.1519 10.8272 10.1519 10.5329V10.4125Z" fill="white"/>
<path d="M17.2633 11.1651C18.0059 11.2454 18.5679 11.4193 18.9492 11.6869C19.3305 11.9545 19.5212 12.3057 19.5212 12.7406V12.8409C19.5212 13.3895 19.2837 13.8277 18.8087 14.1555C18.3404 14.4833 17.6647 14.6773 16.7816 14.7375V15.5704H15.5875V14.7375C14.691 14.6773 14.0086 14.4833 13.5403 14.1555C13.0787 13.821 12.8479 13.3627 12.8479 12.7807V12.7105H14.0822V12.7807C14.0822 13.0751 14.2662 13.2958 14.6342 13.443C15.0021 13.5835 15.5674 13.6537 16.3301 13.6537C17.6279 13.6537 18.2769 13.4296 18.2769 12.9814V12.8811C18.2769 12.7473 18.2401 12.6469 18.1665 12.58C18.0996 12.5064 17.9758 12.4496 17.7952 12.4094C17.6212 12.3626 17.357 12.3191 17.0024 12.279L15.2262 12.0883C14.4502 12.0013 13.8815 11.8341 13.5203 11.5865C13.1657 11.3323 12.9884 10.9711 12.9884 10.5028V10.4024C12.9884 9.89398 13.2159 9.48254 13.6708 9.16812C14.1257 8.85369 14.7646 8.66971 15.5875 8.61619V7.77325H16.7816V8.61619C17.6246 8.68309 18.2668 8.8771 18.7084 9.19822C19.1566 9.51265 19.3807 9.94081 19.3807 10.4827V10.5529H18.1464V10.4827C18.1464 10.2285 17.9624 10.0345 17.5945 9.90067C17.2332 9.76687 16.7181 9.69997 16.0491 9.69997C15.4604 9.69997 15.0088 9.75014 14.6944 9.85049C14.3799 9.95084 14.2227 10.098 14.2227 10.292V10.3924C14.2227 10.5128 14.2562 10.6098 14.3231 10.6834C14.3967 10.7503 14.5238 10.8072 14.7044 10.854C14.8917 10.8941 15.1627 10.9343 15.5172 10.9744L17.2633 11.1651Z" fill="white"/>
</svg>
