<svg width="24" height="25" viewBox="0 0 24 25" fill="none" xmlns="http://www.w3.org/2000/svg">
<path d="M20 4.16138H4C2.9 4.16138 2.01 5.06138 2.01 6.16138L2 18.1614C2 19.2614 2.9 20.1614 4 20.1614H20C21.1 20.1614 22 19.2614 22 18.1614V6.16138C22 5.06138 21.1 4.16138 20 4.16138ZM19.6 8.41138L12.53 12.8314C12.21 13.0314 11.79 13.0314 11.47 12.8314L4.4 8.41138C4.29973 8.35509 4.21192 8.27904 4.14189 8.18783C4.07186 8.09662 4.02106 7.99215 3.99258 7.88075C3.96409 7.76934 3.9585 7.65331 3.97616 7.53968C3.99381 7.42606 4.03434 7.31719 4.09528 7.21968C4.15623 7.12217 4.23632 7.03803 4.33073 6.97237C4.42513 6.90671 4.53187 6.86089 4.6445 6.83768C4.75712 6.81446 4.87328 6.81434 4.98595 6.83733C5.09863 6.86031 5.20546 6.90591 5.3 6.97138L12 11.1614L18.7 6.97138C18.7945 6.90591 18.9014 6.86031 19.014 6.83733C19.1267 6.81434 19.2429 6.81446 19.3555 6.83768C19.4681 6.86089 19.5749 6.90671 19.6693 6.97237C19.7637 7.03803 19.8438 7.12217 19.9047 7.21968C19.9657 7.31719 20.0062 7.42606 20.0238 7.53968C20.0415 7.65331 20.0359 7.76934 20.0074 7.88075C19.9789 7.99215 19.9281 8.09662 19.8581 8.18783C19.7881 8.27904 19.7003 8.35509 19.6 8.41138Z" fill="black"/>
</svg>
