<svg width="16" height="17" viewBox="0 0 16 17" fill="none" xmlns="http://www.w3.org/2000/svg">
<path d="M8.68539 1.49658C9.43539 1.49858 9.81606 1.50258 10.1447 1.51192L10.2741 1.51658C10.4234 1.52192 10.5707 1.52858 10.7487 1.53658C11.4581 1.56992 11.9421 1.68192 12.3667 1.84658C12.8067 2.01592 13.1774 2.24525 13.5481 2.61525C13.8871 2.94851 14.1494 3.35164 14.3167 3.79658C14.4814 4.22125 14.5934 4.70525 14.6267 5.41525C14.6347 5.59258 14.6414 5.73992 14.6467 5.88992L14.6507 6.01925C14.6607 6.34725 14.6647 6.72792 14.6661 7.47792L14.6667 7.97525V8.84858C14.6684 9.33485 14.6633 9.82112 14.6514 10.3072L14.6474 10.4366C14.6421 10.5866 14.6354 10.7339 14.6274 10.9112C14.5941 11.6212 14.4807 12.1046 14.3167 12.5299C14.1498 12.9751 13.8875 13.3783 13.5481 13.7112C13.2147 14.0501 12.8116 14.3124 12.3667 14.4799C11.9421 14.6446 11.4581 14.7566 10.7487 14.7899C10.5905 14.7974 10.4323 14.804 10.2741 14.8099L10.1447 14.8139C9.81606 14.8232 9.43539 14.8279 8.68539 14.8292L8.18806 14.8299H7.31539C6.8289 14.8316 6.34241 14.8265 5.85606 14.8146L5.72673 14.8106C5.56847 14.8046 5.41024 14.7977 5.25206 14.7899C4.54273 14.7566 4.05873 14.6446 3.63339 14.4799C3.18851 14.3128 2.78554 14.0505 2.45273 13.7112C2.11342 13.3781 1.85088 12.975 1.68339 12.5299C1.51873 12.1052 1.40673 11.6212 1.37339 10.9112C1.36596 10.7531 1.3593 10.5948 1.35339 10.4366L1.35006 10.3072C1.33777 9.82113 1.33222 9.33486 1.33339 8.84858V7.47792C1.33153 6.99165 1.33642 6.50538 1.34806 6.01925L1.35273 5.88992C1.35806 5.73992 1.36473 5.59258 1.37273 5.41525C1.40606 4.70525 1.51806 4.22192 1.68273 3.79658C1.85014 3.35118 2.11321 2.94793 2.45339 2.61525C2.78612 2.27623 3.18882 2.01391 3.63339 1.84658C4.05873 1.68192 4.54206 1.56992 5.25206 1.53658C5.42939 1.52858 5.57739 1.52192 5.72673 1.51658L5.85606 1.51258C6.34219 1.50074 6.82846 1.49563 7.31473 1.49725L8.68539 1.49658ZM8.00006 4.82992C7.116 4.82992 6.26816 5.1811 5.64304 5.80623C5.01792 6.43135 4.66673 7.27919 4.66673 8.16325C4.66673 9.0473 5.01792 9.89515 5.64304 10.5203C6.26816 11.1454 7.116 11.4966 8.00006 11.4966C8.88411 11.4966 9.73196 11.1454 10.3571 10.5203C10.9822 9.89515 11.3334 9.0473 11.3334 8.16325C11.3334 7.27919 10.9822 6.43135 10.3571 5.80623C9.73196 5.1811 8.88411 4.82992 8.00006 4.82992ZM8.00006 6.16325C8.2627 6.16321 8.52278 6.21489 8.76545 6.31536C9.00812 6.41583 9.22862 6.56311 9.41437 6.7488C9.60012 6.93449 9.74747 7.15494 9.84802 7.39757C9.94857 7.64021 10.0003 7.90027 10.0004 8.16292C10.0004 8.42556 9.94875 8.68564 9.84828 8.92831C9.74781 9.17098 9.60053 9.39148 9.41484 9.57723C9.22916 9.76297 9.0087 9.91033 8.76607 10.0109C8.52343 10.1114 8.26337 10.1632 8.00073 10.1632C7.47029 10.1632 6.96158 9.95254 6.58651 9.57746C6.21144 9.20239 6.00073 8.69368 6.00073 8.16325C6.00073 7.63282 6.21144 7.12411 6.58651 6.74903C6.96158 6.37396 7.47029 6.16325 8.00073 6.16325M11.5007 3.82992C11.2797 3.82992 11.0677 3.91771 10.9115 4.07399C10.7552 4.23027 10.6674 4.44223 10.6674 4.66325C10.6674 4.88426 10.7552 5.09622 10.9115 5.2525C11.0677 5.40878 11.2797 5.49658 11.5007 5.49658C11.7217 5.49658 11.9337 5.40878 12.09 5.2525C12.2463 5.09622 12.3341 4.88426 12.3341 4.66325C12.3341 4.44223 12.2463 4.23027 12.09 4.07399C11.9337 3.91771 11.7217 3.82992 11.5007 3.82992Z" fill="white"/>
</svg>
