<svg width="14" height="14" viewBox="0 0 14 14" fill="none" xmlns="http://www.w3.org/2000/svg">
<g clip-path="url(#clip0_2064_85805)">
<path d="M6.47883 6.48347L0.189766 3.83545C0.099668 3.79749 0 3.86367 0 3.96145V11.0407C0 11.2196 0.10891 11.3805 0.275023 11.4469L6.375 13.8869C6.4648 13.9228 6.5625 13.8567 6.5625 13.76V6.60947C6.5625 6.55445 6.52952 6.50483 6.47883 6.48347Z" fill="#51535F"/>
<path d="M7.05305 5.73115L13.132 3.17161C13.2412 3.12562 13.2442 2.97184 13.1367 2.92172L7.18501 0.144247C7.06773 0.0895317 6.93227 0.0895317 6.81499 0.144247L0.863272 2.92172C0.755838 2.97184 0.758764 3.12562 0.868029 3.17161L6.94696 5.73115C6.98086 5.74545 7.01914 5.74545 7.05305 5.73115Z" fill="#51535F"/>
<path d="M7.4375 6.60947V13.76C7.4375 13.8567 7.5352 13.9228 7.625 13.8869L13.725 11.4469C13.8911 11.3805 14 11.2196 14 11.0407V3.96145C14 3.86367 13.9003 3.79749 13.8102 3.83545L7.52117 6.48347C7.47048 6.50483 7.4375 6.55445 7.4375 6.60947Z" fill="#51535F"/>
</g>
<defs>
<clipPath id="clip0_2064_85805">
<rect width="14" height="14" fill="white"/>
</clipPath>
</defs>
</svg>
