<svg width="1852" height="467" viewBox="0 0 1852 467" fill="none" xmlns="http://www.w3.org/2000/svg">
<path d="M116.164 211.347H85.9052V367.332H116.164C141.162 367.332 161.127 360.447 176.044 346.662C190.96 332.884 198.418 313.634 198.418 288.915C198.418 264.195 190.96 245.09 176.044 231.592C161.127 218.1 141.162 211.347 116.164 211.347ZM285.361 288.915C285.361 336.08 270.444 372.872 240.611 399.296C210.777 425.72 172.274 438.932 125.113 438.932H0.666504V140.602H125.113C172.561 140.602 211.131 153.811 240.824 180.235C270.511 206.659 285.361 242.886 285.361 288.915Z" fill="#EA4309"/>
<path d="M405.543 288.914C405.543 311.361 412.789 330.401 427.279 346.022C441.77 361.653 460.095 369.464 482.257 369.464C504.699 369.464 523.098 361.726 537.449 346.237C551.793 330.754 558.971 311.649 558.971 288.914C558.971 266.185 551.726 247.148 537.235 231.804C522.745 216.462 504.419 208.789 482.257 208.789C460.095 208.789 441.77 216.609 427.279 232.232C412.789 247.861 405.543 266.753 405.543 288.914ZM645.914 288.914C645.914 334.664 629.998 372.308 598.181 401.853C566.357 431.408 527.713 446.177 482.257 446.177C436.509 446.177 397.799 431.194 366.121 401.214C334.437 371.241 318.601 333.81 318.601 288.914C318.601 243.458 334.51 205.954 366.334 176.401C398.151 146.854 436.795 132.077 482.257 132.077C528.286 132.077 567.069 146.854 598.607 176.401C630.145 205.954 645.914 243.458 645.914 288.914Z" fill="#EA4309"/>
<path d="M899.5 172.99C909.728 185.776 914.843 200.266 914.843 216.461C914.843 244.31 899.354 264.481 868.388 276.98C911.287 289.766 932.743 313.778 932.743 349.008C932.743 366.054 928.335 381.117 919.531 394.184C910.722 407.254 899.214 417.409 885.011 424.654C870.799 431.901 855.956 437.301 840.474 440.85C824.984 444.4 809.288 446.177 793.379 446.177C740.246 446.177 697.062 431.973 663.819 403.558L696.208 349.008C722.911 369.749 752.746 380.118 785.708 380.118C794.232 380.118 802.823 379.266 811.492 377.561C820.156 375.857 828.327 372.168 835.999 366.48C843.67 360.8 847.506 353.694 847.506 345.17C847.506 337.5 844.948 331.106 839.834 325.993C834.72 320.878 828.042 317.189 819.803 314.912C811.559 312.641 803.96 311.076 797.002 310.224C790.036 309.372 783.004 308.944 775.906 308.944H734.566V253.54H775.054C798.347 253.54 814.403 250.418 823.212 244.164C832.302 237.632 836.851 230.246 836.851 222.001C836.851 211.494 831.45 203.962 820.655 199.414C809.854 194.873 798.207 192.594 785.708 192.594C759.564 192.594 734.279 200.84 709.846 217.314L682.144 170.008C713.962 144.721 751.327 132.077 794.232 132.077C842.818 132.077 877.904 145.714 899.5 172.99Z" fill="#EA4309"/>
<path d="M1104.5 205.807H1055.91V267.606H1104.5C1114.73 267.606 1123.18 264.982 1129.86 259.719C1136.53 254.467 1139.87 246.868 1139.87 236.919C1139.87 227.83 1136.89 220.296 1130.92 214.331C1124.38 208.65 1115.58 205.807 1104.5 205.807ZM1226.81 236.919C1226.81 267.891 1215.52 291.618 1192.93 308.092C1170.34 324.574 1143.13 332.811 1111.32 332.811H1055.91V438.932H970.674V140.602H1112.6C1144.41 140.602 1171.41 149.058 1193.57 165.959C1215.73 182.867 1226.81 206.52 1226.81 236.919Z" fill="#EA4309"/>
<path d="M1360.63 438.932H1275.39V140.602H1360.63V438.932Z" fill="#EA4309"/>
<path d="M1704.14 140.601V438.932H1618.9V217.314H1563.5L1560.94 234.361C1557.81 254.538 1554.97 271.086 1552.42 284.013C1549.86 296.945 1545.95 312.853 1540.7 331.746C1535.43 350.644 1528.55 367.332 1520.03 381.824C1511.5 396.313 1501.55 408.533 1490.19 418.476C1470.87 434.957 1445.3 443.194 1413.48 443.194V371.594C1430.24 369.61 1444.02 356.825 1454.82 333.238C1464.76 310.509 1473.42 273.717 1480.82 222.854L1493.18 140.601H1704.14Z" fill="#EA4309"/>
<path d="M1851.18 438.932H1765.94V140.602H1851.18V438.932Z" fill="#EA4309"/>
<path d="M585.933 453.048C585.933 460.542 525.363 466.616 450.644 466.616C375.925 466.616 315.354 460.542 315.354 453.048C315.354 445.555 375.925 439.48 450.644 439.48C525.363 439.48 585.933 445.555 585.933 453.048Z" fill="black"/>
<path d="M478.573 120.91C538.76 120.021 602.841 150.746 634.698 210.125C669.685 275.337 646.866 339.805 642.916 350.403C622.254 405.838 570.361 457.01 502.05 463.683C416.969 471.994 345.96 407.41 323.034 338.665C318.746 325.807 297.404 256.619 339.469 193.103C385.44 123.69 467.39 121.075 478.573 120.91Z" fill="#EA4309"/>
<path d="M352.863 175.731C361.913 171.354 376.039 165.295 394.053 160.822C411.747 156.43 430.449 154.246 481.312 155.735C536.367 157.347 562.523 161.312 563.483 156.91C564.479 152.347 537.516 142.962 533.745 141.648C511.299 133.835 475.501 125.291 426.963 129.456C415.495 133.074 400.44 139.119 384.467 149.475C370.796 158.338 360.391 167.807 352.863 175.731Z" fill="black"/>
<path d="M599.417 53.8033C580.809 86.7593 562.201 119.714 543.593 152.67C543.629 152.818 543.988 154.187 545.353 154.757C546.365 155.179 547.542 155.001 548.418 154.301C567.266 120.931 586.113 87.5633 604.961 54.194C603.113 54.0646 601.265 53.9339 599.417 53.8033Z" fill="#05735E"/>
<path d="M589.505 74.3463C586.759 69.6303 582.803 63.225 577.57 55.9556C566.694 40.845 557.41 28.2196 542.158 20.3476C537.893 18.1463 532.67 16.6983 522.398 13.8916C502.686 8.50498 481.839 2.80898 453.53 0.587644C443.678 -0.185689 433.266 -0.0576874 412.445 0.195646C369.306 0.723646 357.495 3.76498 352.577 12.3263C351.518 14.1676 349.595 17.5156 350.425 21.3263C353.133 33.765 381.837 35.8196 436.901 43.6303C436.901 43.6303 458.945 46.7556 490.311 51.8463C514.257 55.733 548.29 62.3783 589.505 74.3463Z" fill="#05735E"/>
<path d="M571.244 108.584C568.516 106.344 564.605 103.232 559.767 99.7151C553.175 94.9257 532.34 79.9697 506.811 70.4991C497.885 67.1871 483.991 64.8124 456.204 60.0644C437.597 56.8844 443.935 58.4764 384.467 50.6737C367.161 48.4017 361.572 47.6044 352.641 48.8471C335.615 51.2164 310.729 60.4044 310.643 70.2377C310.481 88.6777 397.545 106.59 454.117 110.411C464.933 111.142 491.319 112.483 524.549 111.454C543.648 110.862 559.656 109.654 571.244 108.584Z" fill="#05735E"/>
<path d="M342.143 53.9668C341.446 59.1148 359.291 65.5094 365.099 67.5321C391.637 76.7734 408.077 76.3628 442.314 79.7921C466.085 82.1734 479.025 84.4614 497.162 85.9921C503.209 86.5014 510.422 85.9948 520.573 87.3574C535.261 89.3294 546.963 93.1228 554.641 96.0668C546.07 89.5161 532.878 80.6854 515.154 73.4494C512.349 72.3041 507.715 70.4988 500.346 68.1721C482.775 62.6281 469.894 60.5148 443.282 56.1161C443.282 56.1161 401.681 45.4388 363.622 47.7188C360.013 47.9348 357.027 48.2001 354.998 48.3988C349.297 49.3014 342.555 50.9281 342.143 53.9668Z" fill="black"/>
</svg>
