<svg width="16" height="17" viewBox="0 0 16 17" fill="none" xmlns="http://www.w3.org/2000/svg">
<path d="M13.3334 2.82959H2.66671C1.93337 2.82959 1.34004 3.42959 1.34004 4.16292L1.33337 12.1629C1.33337 12.8963 1.93337 13.4963 2.66671 13.4963H13.3334C14.0667 13.4963 14.6667 12.8963 14.6667 12.1629V4.16292C14.6667 3.42959 14.0667 2.82959 13.3334 2.82959ZM13.0667 5.66292L8.35337 8.60959C8.14004 8.74292 7.86004 8.74292 7.64671 8.60959L2.93337 5.66292C2.86653 5.6254 2.80799 5.5747 2.7613 5.51389C2.71461 5.45309 2.68075 5.38344 2.66176 5.30917C2.64277 5.2349 2.63904 5.15755 2.65081 5.08179C2.66258 5.00604 2.6896 4.93347 2.73023 4.86846C2.77086 4.80345 2.82426 4.74736 2.88719 4.70359C2.95013 4.65981 3.02129 4.62926 3.09637 4.61379C3.17145 4.59831 3.2489 4.59823 3.32401 4.61356C3.39913 4.62888 3.47035 4.65928 3.53337 4.70292L8.00004 7.49626L12.4667 4.70292C12.5297 4.65928 12.601 4.62888 12.6761 4.61356C12.7512 4.59823 12.8286 4.59831 12.9037 4.61379C12.9788 4.62926 13.05 4.65981 13.1129 4.70359C13.1758 4.74736 13.2292 4.80345 13.2699 4.86846C13.3105 4.93347 13.3375 5.00604 13.3493 5.08179C13.361 5.15755 13.3573 5.2349 13.3383 5.30917C13.3193 5.38344 13.2855 5.45309 13.2388 5.51389C13.1921 5.5747 13.1336 5.6254 13.0667 5.66292Z" fill="white"/>
</svg>
