<svg width="37" height="29" viewBox="0 0 37 29" fill="none" xmlns="http://www.w3.org/2000/svg">
<path d="M32.4831 0H4.52452C2.02876 0 0 2.02876 0 4.52452V23.6331C0 26.1289 2.02876 28.1576 4.52452 28.1576H32.4755C34.9712 28.1576 37 26.1289 37 23.6331V4.53217C37.0076 2.03641 34.9789 0 32.4831 0ZM34.9406 23.6331C34.9406 24.9882 33.8382 26.0906 32.4831 26.0906H4.52452C3.16946 26.0906 2.06704 24.9882 2.06704 23.6331V4.53217C2.06704 3.17711 3.16946 2.07469 4.52452 2.07469H32.4755C33.8305 2.07469 34.9329 3.17711 34.9329 4.53217V23.6331H34.9406Z" fill="white"/>
<path d="M23.33 13.8356L32.379 5.72055C32.8001 5.33776 32.8384 4.68703 32.4556 4.25831C32.0728 3.83724 31.4221 3.79897 30.9934 4.18175L18.5146 15.382L16.0801 13.2078C16.0724 13.2002 16.0647 13.1925 16.0647 13.1848C16.0112 13.1313 15.9576 13.0853 15.8963 13.0394L5.98985 4.1741C5.56113 3.79131 4.9104 3.82959 4.52761 4.25831C4.14483 4.68703 4.1831 5.33776 4.61182 5.72055L13.768 13.9045L4.6501 22.4406C4.23669 22.831 4.21373 23.4818 4.60417 23.9028C4.81087 24.1172 5.08648 24.232 5.36208 24.232C5.61472 24.232 5.86736 24.1401 6.06641 23.9564L15.3221 15.2978L17.8332 17.5409C18.0323 17.717 18.2772 17.8012 18.5222 17.8012C18.7672 17.8012 19.0198 17.7094 19.2112 17.5333L21.7912 15.2213L30.9934 23.9641C31.1924 24.1555 31.4527 24.2473 31.7053 24.2473C31.9809 24.2473 32.2489 24.1401 32.4556 23.9258C32.846 23.5124 32.8307 22.854 32.4173 22.4635L23.33 13.8356Z" fill="white"/>
</svg>
