<svg width="24" height="25" viewBox="0 0 24 25" fill="none" xmlns="http://www.w3.org/2000/svg">
<path d="M21.9999 17.0815V20.0815C22.0011 20.36 21.944 20.6356 21.8324 20.8908C21.7209 21.146 21.5572 21.3751 21.352 21.5633C21.1468 21.7516 20.9045 21.895 20.6407 21.9842C20.3769 22.0734 20.0973 22.1065 19.8199 22.0815C16.7428 21.7471 13.7869 20.6956 11.1899 19.0115C8.77376 17.4761 6.72527 15.4276 5.18993 13.0115C3.49991 10.4027 2.44818 7.43247 2.11993 4.34147C2.09494 4.06494 2.12781 3.78623 2.21643 3.5231C2.30506 3.25996 2.4475 3.01816 2.6347 2.8131C2.82189 2.60803 3.04974 2.44418 3.30372 2.332C3.55771 2.21981 3.83227 2.16174 4.10993 2.16147H7.10993C7.59524 2.1567 8.06572 2.32855 8.43369 2.64501C8.80166 2.96146 9.04201 3.40092 9.10993 3.88147C9.23656 4.84154 9.47138 5.7842 9.80993 6.69147C9.94448 7.0494 9.9736 7.43839 9.89384 7.81235C9.81408 8.18632 9.6288 8.52958 9.35993 8.80147L8.08993 10.0715C9.51349 12.575 11.5864 14.6479 14.0899 16.0715L15.3599 14.8015C15.6318 14.5326 15.9751 14.3473 16.3491 14.2676C16.723 14.1878 17.112 14.2169 17.4699 14.3515C18.3772 14.69 19.3199 14.9249 20.2799 15.0515C20.7657 15.12 21.2093 15.3647 21.5265 15.739C21.8436 16.1133 22.0121 16.591 21.9999 17.0815Z" fill="black"/>
</svg>
