<svg width="14" height="13" viewBox="0 0 14 13" fill="none" xmlns="http://www.w3.org/2000/svg">
<path d="M1.54499 3C1.67249 2.0925 2.08749 1.75 2.95499 1.75H10.7725C10.9012 1.7558 11.0226 1.81102 11.1116 1.90417C11.2005 1.99732 11.2501 2.1212 11.25 2.25V3H1.54499ZM12.25 3.0225V2.25C12.25 1.85604 12.0951 1.47788 11.8186 1.19722C11.5422 0.91655 11.1664 0.755909 10.7725 0.75H2.95499C0.779989 0.75 0.532489 2.5225 0.499989 3.4425C0.498864 3.45163 0.498864 3.46087 0.499989 3.47C0.499989 3.47 0.499989 3.5 0.499989 3.5V11.5C0.499989 11.8978 0.658024 12.2794 0.939329 12.5607C1.22063 12.842 1.60216 13 1.99999 13H12C12.3978 13 12.7793 12.842 13.0606 12.5607C13.342 12.2794 13.5 11.8978 13.5 11.5V4.5C13.4996 4.14578 13.3739 3.80312 13.1451 3.53269C12.9164 3.26227 12.5993 3.08154 12.25 3.0225V3.0225ZM10.625 9.25C10.4025 9.25 10.185 9.18402 9.99997 9.0604C9.81497 8.93679 9.67077 8.76109 9.58562 8.55552C9.50047 8.34995 9.4782 8.12375 9.5216 7.90552C9.56501 7.68729 9.67216 7.48684 9.82949 7.3295C9.98683 7.17217 10.1873 7.06503 10.4055 7.02162C10.6237 6.97821 10.8499 7.00049 11.0555 7.08564C11.2611 7.17078 11.4368 7.31498 11.5604 7.49998C11.684 7.68499 11.75 7.9025 11.75 8.125C11.7503 8.27283 11.7214 8.41927 11.665 8.55591C11.6086 8.69255 11.5257 8.8167 11.4212 8.92123C11.3167 9.02576 11.1925 9.10862 11.0559 9.16504C10.9193 9.22146 10.7728 9.25033 10.625 9.25Z" fill="#65DC80"/>
</svg>
